<?xml version="1.0" standalone="no"?>
<!DOCTYPE svg PUBLIC "-//W3C//DTD SVG 20010904//EN"
 "http://www.w3.org/TR/2001/REC-SVG-20010904/DTD/svg10.dtd">
<svg version="1.0" xmlns="http://www.w3.org/2000/svg"
 width="740.000000pt" height="740.000000pt" viewBox="0 0 740.000000 740.000000"
 preserveAspectRatio="xMidYMid meet">

<g transform="translate(0.000000,740.000000) scale(0.100000,-0.100000)"
fill="#000000" stroke="none">
<path d="M3631 7129 c-1 -4 6 -26 14 -49 23 -64 21 -202 -3 -271 -43 -123
-121 -210 -336 -377 -172 -133 -242 -214 -311 -355 -49 -103 -76 -220 -74
-326 2 -63 2 -62 10 29 17 186 90 354 214 489 22 24 99 88 170 141 162 120
269 232 318 332 21 41 37 82 37 91 0 9 5 19 11 23 16 10 2 -141 -22 -234 -40
-158 -121 -277 -297 -440 -250 -230 -319 -304 -357 -383 -19 -40 -35 -85 -35
-99 1 -18 6 -11 18 25 35 100 99 173 322 368 193 170 258 244 323 374 62 123
92 334 68 479 -10 58 -67 207 -70 183z"/>
<path d="M4187 6838 c-11 -153 -78 -332 -179 -475 -83 -118 -228 -272 -428
-453 -264 -239 -335 -325 -386 -464 -32 -89 -38 -167 -20 -252 37 -178 145
-300 440 -494 l124 -82 -48 -63 c-105 -139 -127 -346 -55 -531 l15 -39 -5 35
c-3 19 -9 67 -13 105 -5 61 -7 65 -13 35 -4 -23 -7 -1 -8 61 -1 120 22 203 82
290 53 77 75 93 101 74 18 -14 17 -17 -26 -63 -25 -27 -57 -67 -71 -89 -30
-48 -67 -152 -66 -185 0 -13 6 0 13 27 7 28 24 73 39 102 29 57 132 173 152
173 24 0 171 -118 236 -188 177 -193 256 -385 247 -605 -3 -59 -9 -112 -15
-118 -6 -6 -48 -5 -127 6 -661 86 -1470 -3 -1895 -210 -186 -90 -336 -218
-389 -332 -25 -55 -27 -66 -26 -193 1 -74 7 -171 13 -215 18 -115 67 -314 106
-423 23 -64 30 -94 22 -97 -7 -2 -68 -15 -137 -30 -439 -94 -829 -301 -980
-520 -59 -86 -83 -160 -83 -255 0 -311 311 -570 917 -766 380 -122 841 -214
1346 -266 184 -19 274 -22 625 -23 419 0 506 5 805 46 539 74 1130 246 1450
421 191 105 333 225 384 325 82 164 73 356 -24 499 -75 110 -270 265 -428 340
-33 16 -61 31 -61 34 0 3 78 36 173 73 95 38 202 85 236 105 138 81 271 236
327 378 36 94 38 231 5 315 -43 109 -113 178 -226 222 -80 31 -258 35 -367 8
-108 -27 -272 -108 -338 -167 -28 -26 -53 -45 -54 -43 -2 2 -8 31 -15 64 -62
312 -468 562 -1082 665 -74 13 -136 24 -138 25 -1 1 9 31 22 67 56 147 71 327
41 474 -30 144 -113 300 -248 469 -31 38 -55 70 -54 71 1 1 90 37 197 79 229
91 309 129 408 198 144 99 217 209 216 327 0 140 -105 239 -287 271 -75 12
-195 0 -265 -27 -30 -11 -31 -13 -7 -8 92 20 116 23 175 24 150 1 284 -64 338
-164 25 -47 22 -150 -7 -209 -49 -100 -164 -199 -318 -273 -80 -39 -427 -183
-458 -190 -13 -4 -29 4 -44 20 -14 14 -23 28 -20 29 2 2 36 21 74 42 196 108
353 245 410 359 38 77 45 165 17 216 -22 41 -92 87 -142 95 -28 4 -26 2 12
-10 64 -21 124 -79 133 -129 23 -120 -101 -307 -279 -421 -66 -42 -231 -125
-249 -125 -26 0 -231 246 -288 345 -130 226 -80 457 123 565 51 27 76 34 138
37 64 4 82 1 120 -19 63 -32 93 -92 86 -168 -3 -36 -2 -50 4 -40 5 8 10 42 10
76 0 47 -5 69 -23 94 -83 124 -313 106 -452 -34 -126 -128 -147 -303 -59 -488
46 -94 101 -171 213 -293 l90 -100 -47 -29 c-26 -16 -63 -42 -83 -57 -20 -16
-42 -29 -48 -29 -20 0 -306 198 -370 256 -161 147 -219 294 -176 454 39 145
119 252 355 473 290 271 416 417 504 587 64 122 87 211 93 358 6 137 -1 166
-10 40z m-168 -2102 l22 -24 -85 -51 c-84 -51 -86 -52 -111 -35 -21 14 -23 19
-13 32 17 20 140 102 154 102 6 0 21 -11 33 -24z m108 -121 c131 -168 218
-337 250 -488 16 -78 14 -290 -4 -337 -8 -20 -11 -12 -17 49 -16 162 -76 320
-176 465 -47 68 -206 232 -260 269 -22 15 -23 19 -9 32 15 15 138 84 151 85 4
0 33 -34 65 -75z m-218 -965 c173 -10 367 -33 379 -44 3 -4 1 -11 -6 -18 -8
-8 -34 -8 -99 0 -512 66 -1118 15 -1613 -135 -429 -130 -650 -370 -535 -582
88 -162 331 -299 723 -410 479 -135 1016 -172 1552 -106 551 68 1031 271 1115
471 18 43 20 118 3 165 -45 135 -239 297 -476 399 -156 68 -431 147 -605 175
-32 5 -36 8 -27 24 9 18 14 18 87 4 136 -26 394 -94 504 -133 309 -110 510
-254 594 -423 69 -139 57 -223 -47 -333 -365 -387 -1502 -564 -2458 -383 -445
84 -822 235 -985 395 -85 83 -120 156 -120 249 0 87 25 143 101 224 232 251
771 421 1454 460 210 12 265 12 459 1z m60 -60 c190 -11 262 -18 281 -30 15
-10 2 -36 -48 -93 -20 -23 -6 -13 30 22 l66 64 54 -7 c79 -10 319 -70 428
-106 284 -94 530 -262 606 -412 39 -78 42 -133 9 -207 -15 -33 -31 -61 -35
-61 -4 0 -11 12 -14 26 -4 14 -18 44 -33 67 -111 181 -395 325 -828 421 -590
130 -1181 152 -1629 61 -252 -51 -492 -147 -623 -249 -64 -50 -163 -164 -163
-187 0 -18 -17 -8 -28 16 -19 42 -14 115 12 171 96 205 434 363 977 453 331
56 595 70 938 51z m-559 -270 c0 -5 -4 -10 -10 -10 -5 0 -41 -30 -79 -66 -52
-48 -77 -66 -99 -66 -85 -3 -61 66 42 119 59 31 146 44 146 23z m-344 -19 c-3
-5 -26 -18 -51 -30 -68 -32 -123 -87 -160 -161 -35 -70 -48 -84 -81 -92 -53
-13 -70 41 -35 111 23 45 85 102 141 131 68 35 200 64 186 41z m124 0 c0 -5
-16 -19 -35 -32 -20 -13 -56 -50 -81 -81 -30 -39 -56 -61 -77 -66 -63 -17 -80
12 -36 63 36 41 82 70 158 101 62 26 71 28 71 15z m724 -23 c16 -26 -14 -53
-49 -44 -31 8 -42 31 -24 52 16 19 59 14 73 -8z m-204 -4 c11 -12 11 -17 -1
-28 -26 -25 -55 -27 -80 -7 -20 16 -21 21 -10 35 17 20 75 21 91 0z m-225 -24
c0 -34 -48 -52 -73 -26 -16 16 -16 18 7 37 33 27 66 22 66 -11z m625 15 c17
-20 -3 -45 -37 -45 -13 0 -26 7 -29 15 -10 25 4 45 29 45 14 0 30 -7 37 -15z
m-1352 -38 c-9 -7 -44 -32 -77 -56 -189 -136 -235 -326 -107 -439 85 -74 183
-112 476 -183 244 -59 450 -122 438 -134 -7 -8 -484 81 -618 115 -222 56 -343
113 -420 197 -59 64 -73 105 -68 188 8 136 116 231 358 318 27 10 35 7 18 -6z
m1553 -3 c26 -31 -15 -63 -66 -50 -28 7 -44 44 -24 57 23 14 76 10 90 -7z
m175 -24 c169 -43 344 -129 424 -210 83 -83 96 -148 49 -241 -68 -135 -372
-262 -798 -334 -237 -40 -232 -28 14 34 351 88 526 152 639 234 128 93 141
210 32 303 -87 75 -271 158 -417 189 -80 17 -92 22 -84 36 9 14 55 11 141 -11z
m-363 -87 c83 -23 137 -74 137 -129 0 -81 -66 -138 -350 -304 -106 -62 -197
-136 -234 -190 -17 -24 -17 -24 -28 -5 -6 11 -36 45 -68 76 -60 57 -165 116
-323 180 -201 81 -272 177 -196 263 52 60 128 90 237 94 117 5 187 -9 251 -53
l50 -33 28 30 c61 64 138 86 312 87 88 1 142 -4 184 -16z m-1461 -78 c-6 -95
4 -131 51 -182 58 -63 146 -112 358 -198 215 -88 352 -154 394 -191 33 -29 33
-29 -85 20 -47 19 -125 46 -175 60 -294 80 -356 100 -420 131 -84 40 -158 103
-185 156 -36 70 -22 160 36 236 14 18 26 33 27 33 2 0 1 -29 -1 -65z m3630 14
c110 -37 180 -98 226 -199 21 -46 26 -69 25 -145 0 -102 -21 -170 -81 -264
-109 -173 -219 -248 -562 -385 -91 -37 -225 -96 -298 -132 -126 -63 -139 -72
-258 -185 -68 -65 -127 -119 -132 -119 -4 -1 -26 -5 -49 -9 -53 -10 -59 -4
-31 27 13 13 50 63 83 110 97 140 236 233 547 372 312 137 442 213 540 310 78
79 119 165 119 252 0 109 -38 170 -136 219 -121 59 -269 49 -431 -32 -143 -70
-239 -176 -283 -309 -13 -40 -29 -70 -43 -79 -24 -15 -25 -33 7 179 20 137 20
135 73 192 77 82 224 162 374 202 83 23 236 20 310 -5z m-1625 -89 c53 -23 83
-70 83 -128 0 -94 -71 -168 -237 -249 -52 -25 -96 -43 -99 -41 -2 3 20 24 51
48 132 102 174 206 120 295 -29 47 -31 70 -7 84 25 15 41 13 89 -9z m1600 -96
c77 -37 113 -95 113 -178 0 -88 -34 -153 -123 -240 -87 -85 -183 -144 -378
-232 -79 -36 -183 -83 -230 -106 l-87 -40 -76 18 -77 18 7 30 c4 17 24 85 45
151 35 111 42 123 82 157 33 28 47 48 57 85 28 104 75 171 165 240 168 127
363 165 502 97z m-1757 -44 c30 -30 27 -95 -8 -151 -34 -53 -83 -94 -172 -142
-62 -34 -189 -81 -197 -73 -2 2 26 20 62 41 122 72 185 151 185 233 0 45 15
93 33 104 23 15 77 8 97 -12z m-1304 -93 c255 -109 384 -188 420 -259 16 -31
14 -30 -37 16 -36 32 -98 70 -189 113 -74 36 -175 85 -225 109 -77 37 -162 92
-144 94 3 0 81 -33 175 -73z m1048 -49 c58 -82 -64 -185 -298 -253 -94 -27
-224 -50 -233 -42 -2 3 35 17 84 32 169 52 289 130 333 215 11 21 27 45 35 54
23 23 61 20 79 -6z m-2174 -45 c76 -58 221 -130 388 -193 l142 -54 0 -114 c0
-273 74 -531 209 -730 101 -150 230 -271 350 -331 88 -45 112 -47 51 -5 -135
91 -314 312 -394 486 -45 96 -83 228 -101 348 -15 99 -20 310 -8 310 4 0 89
-18 188 -40 191 -41 389 -73 570 -90 141 -13 547 -13 690 0 573 52 1077 214
1282 413 24 22 45 39 47 36 6 -6 -29 -196 -60 -319 -131 -531 -448 -906 -943
-1114 -367 -155 -848 -200 -1197 -111 -395 100 -866 530 -1107 1010 -64 128
-105 242 -148 404 -17 64 -33 124 -36 135 -6 22 0 19 77 -41z m-45 -504 c4 -6
5 -12 3 -14 -2 -2 -82 -24 -178 -48 -263 -67 -462 -148 -621 -253 -87 -57
-189 -166 -225 -240 -26 -53 -29 -69 -29 -155 0 -91 2 -99 39 -174 177 -358
884 -642 1861 -749 282 -31 447 -40 770 -40 670 0 1210 76 1732 245 442 143
704 312 805 517 30 60 33 75 33 157 0 82 -3 97 -33 157 -58 118 -198 235 -415
348 -48 25 -87 48 -87 51 0 4 20 14 45 24 l45 17 82 -42 c176 -90 362 -237
433 -342 61 -91 86 -213 66 -323 -44 -237 -268 -418 -730 -590 -560 -207
-1120 -308 -1786 -322 -687 -14 -1419 81 -2024 262 -457 137 -752 310 -890
525 -56 86 -75 154 -69 250 15 253 278 476 757 641 102 35 299 89 371 102 14
2 28 5 32 6 4 0 10 -4 13 -10z m56 -112 c17 -34 61 -113 96 -175 l65 -113 -45
-44 c-124 -118 -144 -233 -62 -347 128 -176 440 -313 883 -388 408 -69 921
-78 1347 -24 667 84 982 321 770 580 l-35 42 69 21 c66 20 74 26 153 111 95
104 167 162 260 210 l65 33 108 -57 c218 -115 349 -229 409 -355 143 -302
-204 -614 -908 -816 -245 -70 -589 -137 -871 -169 -428 -49 -1013 -49 -1505 0
-888 88 -1579 340 -1804 657 -152 215 -100 424 148 596 107 74 298 163 461
216 144 47 344 96 358 88 4 -2 21 -32 38 -66z m3388 17 c3 -4 1 -9 -5 -11 -7
-2 -40 -24 -75 -48 -35 -24 -65 -43 -66 -41 -1 1 7 28 20 60 l22 58 49 -6 c27
-3 51 -8 55 -12z m-3161 -386 c227 -300 572 -507 959 -577 630 -113 1246 30
1676 389 93 78 99 81 120 67 42 -28 87 -81 103 -123 21 -54 13 -98 -26 -153
-110 -151 -434 -251 -960 -297 -262 -22 -734 -15 -955 15 -511 69 -849 182
-1017 339 -100 94 -118 160 -72 258 17 36 107 134 123 134 5 0 27 -24 49 -52z"/>
<path d="M3797 3069 c-53 -12 -117 -46 -154 -82 l-32 -30 -38 26 c-75 52 -110
61 -228 62 -122 0 -171 -16 -208 -66 -17 -24 -18 -30 -6 -54 20 -41 49 -59
203 -125 207 -89 250 -120 305 -220 19 -35 31 -48 31 -35 1 97 82 188 241 270
134 71 199 124 199 166 0 39 -37 73 -95 88 -51 13 -163 13 -218 0z m197 -68
c14 -14 26 -30 26 -37 0 -26 -58 -80 -151 -140 -115 -75 -150 -108 -181 -174
-22 -48 -38 -63 -38 -37 0 23 -48 79 -97 114 -26 19 -92 57 -145 85 -120 61
-161 97 -156 135 5 45 58 73 137 73 71 0 129 -21 188 -66 l33 -25 37 36 c51
49 107 65 225 62 87 -2 99 -4 122 -26z"/>
<path d="M1660 1500 c-92 -20 -123 -70 -74 -121 39 -41 113 -63 212 -62 67 0
88 4 110 20 37 27 39 63 8 101 -46 54 -160 82 -256 62z m156 -25 c49 -15 102
-51 91 -61 -3 -3 -29 -1 -57 5 -28 6 -103 11 -168 11 -106 0 -115 1 -101 16
42 42 150 55 235 29z m-15 -71 c89 -5 131 -15 118 -28 -14 -14 -129 -27 -184
-21 -62 7 -155 41 -155 57 0 4 28 6 63 3 34 -2 105 -7 158 -11z"/>
<path d="M1308 1337 c-140 -45 -74 -145 97 -147 100 0 163 49 124 96 -38 46
-155 73 -221 51z m158 -26 c59 -27 69 -46 18 -35 -21 5 -83 8 -136 8 -54 -1
-98 2 -98 6 0 15 76 39 125 39 28 0 68 -8 91 -18z m8 -47 c25 -4 46 -10 46
-15 0 -11 -83 -24 -150 -24 -58 1 -124 21 -114 36 6 10 149 12 218 3z"/>
<path d="M1694 1235 c-119 -26 -164 -68 -130 -121 28 -41 98 -67 198 -72 191
-10 283 59 193 144 -56 52 -160 72 -261 49z m196 -29 c43 -20 75 -44 69 -50
-2 -3 -25 0 -49 6 -28 6 -102 8 -192 4 -82 -4 -148 -4 -148 -1 0 8 78 45 117
55 54 13 163 6 203 -14z m73 -75 c24 -24 -120 -56 -223 -48 -72 5 -170 33
-170 49 0 18 374 18 393 -1z"/>
<path d="M2097 1066 c-27 -7 -59 -23 -70 -35 -20 -20 -21 -23 -7 -49 8 -15 38
-38 65 -52 42 -21 64 -25 135 -24 89 0 155 19 166 49 23 59 -57 116 -170 121
-40 2 -92 -2 -119 -10z m226 -33 c27 -13 47 -26 45 -27 -1 -2 -79 0 -173 3
l-170 6 34 19 c75 41 182 40 264 -1z m37 -53 c53 -33 -226 -50 -287 -17 -18
10 -33 20 -33 22 0 9 305 5 320 -5z"/>
<path d="M2931 5654 c0 -11 3 -14 6 -6 3 7 2 16 -1 19 -3 4 -6 -2 -5 -13z"/>
<path d="M2971 5594 c0 -11 3 -14 6 -6 3 7 2 16 -1 19 -3 4 -6 -2 -5 -13z"/>
<path d="M4248 5504 c-19 -10 -16 -11 27 -7 61 7 65 9 26 15 -16 2 -40 -1 -53
-8z"/>
<path d="M4138 5453 c-17 -21 -5 -24 21 -4 17 13 19 18 7 18 -9 0 -21 -6 -28
-14z"/>
<path d="M2599 5407 c-183 -168 -263 -327 -239 -473 20 -124 102 -235 244
-328 44 -29 165 -99 268 -155 104 -55 225 -124 270 -152 179 -112 329 -245
415 -368 60 -86 73 -98 38 -36 -82 145 -250 309 -438 429 -32 20 -143 82 -245
137 -418 225 -524 330 -526 524 -1 82 21 155 70 235 38 62 129 166 119 135
-36 -102 -45 -216 -24 -305 6 -25 25 -74 42 -110 41 -84 171 -215 287 -291
268 -175 323 -214 400 -281 161 -140 281 -301 349 -468 16 -41 30 -70 31 -65
1 22 -73 196 -108 253 -103 169 -263 331 -447 450 -256 166 -302 199 -364 257
-188 178 -237 436 -117 614 19 28 34 51 33 51 -1 -1 -27 -24 -58 -53z"/>
<path d="M3651 3970 c0 -8 4 -24 9 -35 5 -13 9 -14 9 -5 0 8 -4 24 -9 35 -5
13 -9 14 -9 5z"/>
<path d="M3666 3747 c3 -10 9 -15 12 -12 3 3 0 11 -7 18 -10 9 -11 8 -5 -6z"/>
</g>
</svg>
